<?xml version="1.0" encoding="utf-8" ?><!-- created by svgstack.com | Attribution is required. --><svg xmlns="http://www.w3.org/2000/svg" xmlns:xlink="http://www.w3.org/1999/xlink" width="1024" height="1024"><path fill="#4C87D8" transform="scale(2 2)" d="M393.221 161.055C397.963 165.373 403.069 169.237 408.032 173.292L444.398 202.75C445.882 203.955 449.919 205.95 450.448 207.78L450.089 208.268C448.277 207.042 440.969 208.253 438.507 208.258L409.765 208.276C404.31 208.274 398.634 208.611 393.221 207.986C393.219 192.347 393.39 176.692 393.221 161.055Z"/><path fill="#4C87D8" transform="scale(2 2)" d="M120.369 158.739L120.371 191.24C120.371 196.568 120.537 201.95 120.369 207.272C102.536 207.198 80.8407 207.254 63.2515 208.131C63.0069 207.768 63.0032 207.245 62.9374 206.815C64.7337 203.836 73.6526 197.626 76.6919 195.089L104.761 171.659C109.079 168.107 116.006 161.49 120.369 158.739Z"/><path fill="#4C87D8" transform="scale(2 2)" d="M183.927 107.037C189.814 101.939 195.923 97.2112 202.003 92.3582L224.842 74.0118C232.245 68.1264 248.007 53.1969 257.159 53.7309C265.031 54.1903 274.11 63.7952 279.935 68.443L309.919 92.3998C314.807 96.3152 324.681 102.901 328.457 107.037C317.075 107.416 305.553 107.037 294.153 107.036L195.02 107.043C191.845 107.048 186.812 107.591 183.927 107.037Z"/><path fill="#87C1F7" transform="scale(2 2)" d="M62.9374 206.815C63.0032 207.245 63.0069 207.768 63.2515 208.131C80.8407 207.254 102.536 207.198 120.369 207.272L120.363 238.661C120.362 243.805 120.084 249.109 120.369 254.237C120.586 258.723 126.23 261.477 129.89 264.546L188.008 313.018C194.99 318.868 202.424 324.546 209.006 330.843C206.431 333.114 203.637 335.143 200.992 337.335L81.8111 435.93C78.126 438.91 71.1782 443.822 68.2961 447.147C59.7227 435.263 61.8405 424.927 61.8451 410.994L61.8482 226.161C61.8472 220.213 62.0315 214.211 61.8532 208.268C61.6983 207.714 61.712 208.006 61.851 207.394L62.9374 206.815Z"/><path fill="#3665C2" transform="scale(2 2)" d="M62.9374 206.815C63.0032 207.245 63.0069 207.768 63.2515 208.131C80.8407 207.254 102.536 207.198 120.369 207.272L120.363 238.661C120.362 243.805 120.084 249.109 120.369 254.237C120.088 259.662 112.956 250.328 109.542 247.45L79.033 222.018C75.5845 219.103 65.2755 209.821 61.8532 208.268C61.6983 207.714 61.712 208.006 61.851 207.394L62.9374 206.815Z"/><path fill="#87C1F7" transform="scale(2 2)" d="M393.221 207.986C398.634 208.611 404.31 208.274 409.765 208.276L438.507 208.258C440.969 208.253 448.277 207.042 450.089 208.268L450.089 208.268C450.569 210.14 450.088 218.962 450.088 221.523L450.091 408.193C450.089 420.987 452.42 436.909 443.092 447.147C438.006 442.34 432.32 438.082 426.925 433.629L336.75 358.997C325.412 349.592 313.908 340.368 302.671 330.843C311.486 322.646 321.13 315.175 330.343 307.426L375.692 268.566C381.295 263.69 388.098 259.577 393.221 254.237C393.606 249.334 393.235 244.116 393.233 239.173L393.221 207.986Z"/><path fill="#3665C2" transform="scale(2 2)" d="M393.221 207.986C398.634 208.611 404.31 208.274 409.765 208.276L438.507 208.258C440.969 208.253 448.277 207.042 450.089 208.268L450.089 208.268C444.78 211.475 440.089 216.146 435.29 220.065L397.738 250.391C396.243 251.639 394.811 253.13 393.221 254.237C393.606 249.334 393.235 244.116 393.233 239.173L393.221 207.986Z"/><path fill="#4C87D8" transform="scale(2 2)" d="M209.006 330.843C218.581 323.346 227.925 315.501 237.431 307.907C259.538 290.244 258.744 294.554 278.85 311.27L302.671 330.843C313.908 340.368 325.412 349.592 336.75 358.997L426.925 433.629C432.32 438.082 438.006 442.34 443.092 447.147C432.169 458.106 416.41 454.938 402.011 454.941L97.2598 454.946C84.7727 454.982 78.2243 456.457 68.2961 447.147C71.1782 443.822 78.126 438.91 81.8111 435.93L200.992 337.335C203.637 335.143 206.431 333.114 209.006 330.843Z"/><path fill="#F8F8F8" transform="scale(2 2)" d="M120.369 158.739C122.228 151.918 118.757 132.563 121.358 121.443C124.832 106.593 135.98 107.514 148.094 107.263C157.85 107.061 174.681 108.236 183.586 107.084L183.927 107.037C186.812 107.591 191.845 107.048 195.02 107.043L294.153 107.036C305.553 107.037 317.075 107.416 328.457 107.037C331.509 107.855 334.678 107.038 337.772 107.014C346.961 106.942 374.02 106.179 380.981 108.965C401.301 117.098 388.271 148.011 393.221 161.055C393.39 176.692 393.219 192.347 393.221 207.986L393.233 239.173C393.235 244.116 393.606 249.334 393.221 254.237C388.098 259.577 381.295 263.69 375.692 268.566L330.343 307.426C321.13 315.175 311.486 322.646 302.671 330.843L278.85 311.27C258.744 294.554 259.538 290.244 237.431 307.907C227.925 315.501 218.581 323.346 209.006 330.843C202.424 324.546 194.99 318.868 188.008 313.018L129.89 264.546C126.23 261.477 120.586 258.723 120.369 254.237C120.084 249.109 120.362 243.805 120.363 238.661L120.369 207.272C120.537 201.95 120.371 196.568 120.371 191.24L120.369 158.739Z"/><path fill="#B1B2BD" transform="scale(2 2)" d="M176.568 191.751C181.138 191.465 185.84 191.745 190.428 191.747L276.597 191.74C280.958 191.738 296.122 191.203 299.168 192.06C306.62 194.156 304.72 203.75 298.466 206.815C295.616 207.079 292.601 206.822 289.728 206.82L210.429 206.818C205.73 206.818 178.158 207.377 175.519 206.342C167.833 203.33 169.951 194.303 176.568 191.751Z"/><path fill="#B1B2BD" transform="scale(2 2)" d="M326.952 158.739C330.932 158.569 336.071 157.752 339.334 160.529C342.537 163.256 342.829 168.171 339.867 171.193C335.612 175.538 323.258 173.8 317.665 173.8L185.438 173.797C181.716 173.762 175.787 174.314 172.81 171.709C169.75 169.031 170.059 163.708 172.809 160.937C176.594 157.126 189.83 158.743 194.824 158.744L326.952 158.739Z"/><path fill="#B1B2BD" transform="scale(2 2)" d="M228.41 223.881L325.251 223.868C331.15 223.862 341.368 222.3 341.965 231.352C342.646 241.667 326.976 239.02 320.991 239.017L285.375 239.023L189.768 239.033C185.081 239.035 176.971 240.401 173.096 237.065C169.858 234.278 170.151 229.031 173.066 226.134C176.991 222.234 190.471 223.873 195.624 223.872L228.41 223.881Z"/><path fill="#B1B2BD" transform="scale(2 2)" d="M178.018 256.222L315.07 256.217C320.137 256.216 334.018 254.93 338.182 257.564C344.935 261.837 341.933 269.948 335.049 271.499C332.516 271.726 329.919 271.54 327.377 271.524L189.151 271.504C183.107 271.504 172.045 273.428 170.581 265.204C169.743 260.503 173.73 256.959 178.018 256.222Z"/></svg> 